 <svg version="1.0" xmlns="http://www.w3.org/2000/svg"  width="600.000000pt" height="600.000000pt" viewBox="0 0 600.000000 600.000000"  preserveAspectRatio="xMidYMid meet">  <g transform="translate(0.000000,600.000000) scale(0.100000,-0.100000)" fill="#000000" stroke="none"> <path d="M2800 5140 c-30 -5 -82 -11 -115 -15 -65 -7 -170 -28 -250 -50 -98 -28 -190 -58 -199 -67 -6 -4 -17 -8 -25 -8 -13 0 -36 -10 -171 -73 -25 -11 -78 -40 -118 -64 -41 -24 -76 -43 -78 -43 -4 0 -74 -50 -109 -78 -5 -4 -46 -35 -90 -69 -103 -78 -261 -236 -338 -338 -34 -44 -63 -82 -66 -85 -43 -38 -185 -293 -241 -430 -12 -30 -28 -68 -35 -85 -13 -30 -28 -78 -58 -185 -85 -299 -97 -671 -31 -990 24 -115 80 -307 96 -324 4 -6 8 -16 8 -23 0 -12 34 -91 78 -183 14 -30 84 -150 125 -215 6 -10 45 -64 86 -120 111 -149 258 -300 391 -400 36 -27 67 -52 70 -55 14 -16 241 -154 300 -182 92 -44 171 -78 183 -78 7 0 17 -4 23 -8 10 -10 109 -42 199 -65 122 -31 162 -39 228 -48 37 -5 100 -13 140 -19 93 -12 281 -12 375 0 39 6 102 14 140 19 65 9 103 17 227 48 71 18 170 49 205 64 14 6 41 18 60 26 113 48 166 73 240 115 30 16 69 41 87 54 17 13 34 24 38 24 6 0 61 38 81 55 6 6 40 33 77 60 96 72 291 274 380 392 42 56 77 105 77 108 0 4 11 21 24 38 21 29 49 77 106 187 45 87 96 210 107 260 3 14 9 30 13 35 4 6 16 39 25 75 29 110 32 125 66 323 17 104 23 344 9 442 -6 50 -15 122 -20 160 -12 105 -71 332 -109 420 -5 11 -19 45 -31 75 -27 67 -71 157 -112 230 -31 57 -118 191 -128 200 -3 3 -33 41 -67 85 -78 102 -236 260 -338 338 -44 34 -82 64 -85 67 -9 10 -143 97 -200 128 -73 41 -163 85 -230 112 -30 12 -64 26 -75 31 -92 40 -340 103 -445 113 -30 3 -86 10 -125 16 -80 11 -293 11 -375 0z m485 -138 c118 -15 342 -73 435 -113 67 -29 90 -40 155 -70 62 -28 223 -120 250 -141 6 -5 41 -31 78 -58 106 -78 230 -195 346 -325 99 -112 249 -357 317 -520 7 -16 20 -46 28 -67 9 -20 16 -45 16 -55 0 -10 4 -23 9 -28 10 -10 17 -36 47 -160 67 -277 74 -548 23 -835 -25 -141 -31 -166 -40 -174 -5 -6 -9 -21 -9 -35 0 -15 -7 -39 -15 -55 -8 -15 -15 -35 -15 -43 0 -14 -7 -32 -45 -118 -25 -57 -90 -190 -95 -195 -3 -3 -16 -26 -30 -52 -13 -27 -28 -48 -32 -48 -5 0 -8 -5 -8 -11 0 -6 -8 -21 -17 -34 -10 -12 -25 -33 -33 -45 -112 -166 -324 -378 -490 -490 -12 -8 -33 -23 -45 -32 -13 -10 -28 -18 -34 -18 -6 0 -11 -3 -11 -7 0 -19 -253 -146 -375 -188 -27 -9 -57 -21 -66 -25 -9 -5 -34 -12 -55 -16 -22 -3 -43 -10 -49 -14 -5 -5 -28 -11 -50 -15 -22 -4 -54 -11 -72 -16 -33 -10 -117 -21 -302 -39 -168 -16 -481 17 -626 66 -23 8 -49 14 -59 14 -10 0 -32 6 -49 14 -18 8 -60 24 -95 35 -34 12 -70 25 -80 30 -9 5 -64 32 -122 61 -87 43 -211 117 -255 152 -5 5 -32 25 -60 45 -142 105 -326 297 -425 443 -8 12 -23 31 -33 42 -9 12 -17 27 -17 34 0 7 -4 14 -8 16 -17 7 -99 160 -152 283 -5 11 -18 41 -29 67 -12 26 -21 55 -21 65 0 11 -4 23 -9 29 -20 20 -63 209 -91 408 -14 94 -14 385 0 441 5 22 10 57 10 79 0 69 69 337 111 436 6 14 17 39 24 55 41 96 110 229 150 289 25 38 45 71 45 73 0 6 87 120 120 157 204 233 440 417 675 525 65 30 88 41 155 70 100 43 364 110 441 112 24 1 58 5 74 9 37 10 415 4 510 -8z"></path> <path d="M2779 4846 c-3 -3 -45 -12 -95 -20 -129 -21 -262 -55 -321 -82 -17 -8 -35 -14 -41 -14 -5 0 -47 -19 -93 -41 -46 -23 -102 -51 -124 -61 -185 -91 -452 -320 -588 -503 -37 -49 -71 -95 -77 -102 -5 -7 -10 -14 -10 -17 0 -3 -13 -24 -29 -48 -36 -54 -151 -282 -151 -301 0 -3 -5 -18 -12 -34 -27 -66 -62 -197 -86 -328 -23 -126 -23 -473 0 -605 22 -128 40 -200 72 -295 33 -97 144 -335 156 -335 3 0 16 -22 29 -50 13 -27 27 -50 32 -50 4 0 10 -8 13 -17 3 -10 16 -29 28 -43 13 -14 37 -45 53 -69 29 -44 262 -281 275 -281 4 0 40 -27 81 -60 41 -33 77 -60 81 -60 4 0 37 -20 74 -45 36 -25 67 -45 70 -45 2 0 47 -20 99 -45 53 -25 107 -48 121 -51 13 -3 27 -10 30 -15 3 -5 15 -9 27 -9 12 0 35 -7 51 -15 15 -8 36 -15 46 -15 10 0 40 -6 66 -14 126 -36 222 -46 434 -46 212 0 308 10 434 46 26 8 56 14 66 14 10 0 31 7 46 15 16 8 38 15 49 15 11 0 29 7 39 15 11 8 26 15 33 15 7 0 55 20 106 45 52 25 96 45 100 45 3 0 35 20 71 45 37 25 70 45 74 45 4 0 40 27 81 60 41 33 77 60 81 60 13 0 246 237 275 281 17 24 40 55 53 69 12 14 22 28 22 32 0 3 6 13 13 20 19 21 36 50 48 81 6 15 14 27 19 27 4 0 10 8 14 18 3 9 10 24 15 32 5 8 26 51 47 95 20 44 40 88 45 97 5 10 9 23 9 29 0 6 6 25 14 42 34 76 58 167 84 317 23 132 23 468 0 600 -20 114 -36 188 -48 215 -4 11 -18 50 -30 88 -12 37 -28 79 -36 95 -7 15 -14 32 -14 37 0 14 -71 153 -117 230 -103 171 -314 415 -359 415 -27 0 -38 -14 -27 -34 4 -8 44 -52 88 -98 188 -194 350 -462 415 -683 5 -16 18 -61 30 -100 11 -38 25 -97 29 -130 5 -33 14 -87 21 -120 14 -74 8 -398 -9 -500 -17 -94 -49 -212 -92 -335 -26 -76 -91 -215 -129 -275 -44 -72 -49 -80 -56 -95 -53 -110 -398 -460 -454 -460 -18 0 -30 26 -30 70 0 72 -67 200 -140 270 -55 53 -164 120 -195 120 -8 0 -29 6 -47 14 -18 8 -85 31 -148 51 -129 41 -180 73 -180 111 0 14 7 27 18 31 25 9 131 91 172 132 40 41 88 103 108 141 17 31 52 137 52 157 0 8 11 29 26 48 28 37 52 118 80 268 18 96 18 99 -1 135 -10 20 -25 45 -33 54 -12 14 -12 21 2 45 41 76 57 234 31 308 -8 22 -15 45 -15 52 0 7 -13 35 -30 63 -32 54 -38 95 -17 103 8 3 29 35 48 71 36 70 34 98 -7 104 -10 1 -28 5 -40 7 -19 4 -149 87 -224 144 -45 33 -65 45 -120 71 -25 12 -53 26 -62 31 -10 5 -59 18 -110 30 -240 54 -522 -27 -628 -180 -31 -44 -43 -55 -99 -83 -54 -28 -139 -120 -176 -191 -56 -108 -78 -249 -55 -357 6 -25 14 -67 19 -93 4 -27 13 -53 20 -60 13 -13 15 -54 2 -62 -6 -3 -20 -26 -32 -51 l-23 -45 18 -97 c26 -142 52 -231 81 -268 14 -18 25 -40 25 -48 0 -45 49 -160 95 -221 54 -73 187 -189 238 -208 31 -11 21 -53 -22 -86 -21 -17 -46 -31 -55 -31 -8 0 -30 -6 -48 -14 -18 -7 -80 -28 -138 -46 -141 -43 -220 -83 -284 -144 -85 -80 -135 -178 -151 -298 -8 -61 -25 -62 -97 -6 -119 94 -345 342 -382 418 -7 16 -15 29 -57 95 -32 52 -119 230 -119 245 0 7 -6 26 -14 43 -13 30 -28 82 -60 200 -62 226 -62 590 -1 815 34 124 48 169 61 200 8 18 14 37 14 42 0 17 91 201 139 280 106 177 291 382 456 507 78 58 278 183 295 183 4 0 35 14 68 30 34 17 65 30 71 30 6 0 25 6 43 14 63 27 219 67 354 90 210 37 583 8 774 -59 91 -32 103 -34 122 -24 34 18 16 42 -47 62 -33 10 -69 23 -80 27 -27 11 -144 37 -235 51 -76 13 -481 25 -491 15z m77 -777 c-32 -9 -56 -1 -36 11 6 4 23 5 38 2 l27 -5 -29 -8z m368 1 c-6 -6 -21 -6 -39 -1 -30 9 -30 9 10 10 25 1 36 -2 29 -9z m76 -30 c0 -13 -11 -13 -30 0 -12 8 -11 10 8 10 12 0 22 -4 22 -10z m60 -30 c0 -13 -11 -13 -30 0 -12 8 -11 10 8 10 12 0 22 -4 22 -10z m-742 -277 c-10 -2 -26 -2 -35 0 -10 3 -2 5 17 5 19 0 27 -2 18 -5z m949 -70 c-3 -10 -5 -2 -5 17 0 19 2 27 5 18 2 -10 2 -26 0 -35z m-102 17 c4 -6 -7 -10 -27 -9 -31 1 -32 1 -8 9 14 4 26 8 27 9 1 1 5 -3 8 -9z m-90 -29 c7 -12 -12 -24 -25 -16 -11 7 -4 25 10 25 5 0 11 -4 15 -9z m-1048 -58 c-3 -10 -5 -2 -5 17 0 19 2 27 5 18 2 -10 2 -26 0 -35z m193 11 c0 -14 -4 -23 -9 -20 -5 3 -7 15 -4 26 7 28 13 25 13 -6z m335 -14 c17 -7 14 -9 -13 -9 -20 -1 -31 3 -27 9 7 12 13 12 40 0z m375 0 c11 -7 4 -10 -25 -9 -31 0 -36 2 -20 9 26 11 28 11 45 0z m-578 -12 c71 -65 217 -108 368 -108 128 0 226 22 356 81 53 25 57 24 76 -13 41 -85 68 -230 77 -413 5 -116 8 -130 25 -133 10 -2 32 10 52 29 29 28 34 30 40 15 3 -9 -1 -45 -10 -81 -9 -35 -16 -74 -16 -87 -1 -43 -29 -102 -59 -126 -27 -21 -31 -30 -31 -74 0 -27 -6 -64 -14 -81 -8 -18 -16 -37 -18 -44 -7 -27 -146 -168 -197 -202 -112 -72 -144 -89 -216 -112 -74 -23 -117 -24 -181 -3 -130 43 -257 125 -350 228 -38 43 -71 83 -72 89 -2 7 -10 26 -18 44 -8 17 -14 54 -14 81 0 44 -4 53 -31 74 -30 24 -58 83 -59 126 0 13 -7 52 -16 87 -9 36 -13 72 -10 81 6 15 11 13 40 -15 55 -53 70 -42 78 59 12 152 52 290 134 453 8 16 14 35 14 43 0 17 34 18 52 2z m403 -30 c-16 -4 -43 -5 -60 -1 -29 6 -29 7 -6 12 14 4 41 5 60 2 l36 -4 -30 -9z m505 -25 c0 -21 -3 -24 -9 -14 -5 8 -7 20 -4 28 8 21 13 15 13 -14z m99 -10 c-1 -37 -1 -37 -8 -8 -7 28 -5 45 5 45 2 0 3 -17 3 -37z m-1357 -58 c0 -20 -3 -39 -6 -42 -3 -4 -6 15 -6 42 0 27 3 46 6 42 3 -3 6 -22 6 -42z m1290 -67 c-9 -9 -12 -1 -11 33 l1 44 11 -33 c7 -24 7 -36 -1 -44z m95 -20 c-2 -13 -4 -5 -4 17 -1 22 1 32 4 23 2 -10 2 -28 0 -40z m-1357 -102 c-7 -7 -10 1 -9 25 0 32 1 33 10 10 6 -16 6 -28 -1 -35z m70 22 c0 -23 -3 -29 -11 -21 -6 6 -8 20 -4 32 9 30 15 26 15 -11z m1221 -125 c-16 -35 -18 -28 -12 42 l4 60 10 -38 c6 -27 6 -46 -2 -64z m-1251 36 c0 -10 -4 -19 -10 -19 -5 0 -10 12 -10 26 0 14 4 23 10 19 6 -3 10 -15 10 -26z m602 -1046 c51 -5 90 3 175 34 7 3 21 -17 33 -45 12 -28 30 -58 41 -68 10 -9 19 -23 19 -30 0 -21 -30 -44 -58 -44 -15 0 -41 -8 -58 -19 -27 -16 -42 -18 -145 -10 -113 8 -213 29 -233 49 -7 7 -7 16 2 28 7 9 26 45 42 79 l30 62 47 -15 c27 -9 73 -18 105 -21z"></path> <path d="M3779 4644 c-11 -14 -9 -19 11 -35 66 -50 140 -74 155 -48 10 16 -19 43 -80 72 -63 32 -68 32 -86 11z"></path> <path d="M4016 4504 c-8 -22 -9 -21 17 -45 28 -26 62 -40 82 -33 24 9 18 28 -20 62 -38 35 -69 41 -79 16z"></path> </g> </svg> 